<?xml version="1.0" ?><svg viewBox="0 0 60 60" xmlns="http://www.w3.org/2000/svg"><title/><g id="text"><text font-family="MyriadPro-Regular, Myriad Pro" font-size="9" transform="translate(8.04248 -49.60986)"><tspan letter-spacing="0.00602em"/><tspan x="7.29004" y="0"/><tspan letter-spacing="-0.00499em" x="11.62793" y="0"/><tspan x="14.52588" y="0"/><tspan letter-spacing="0.00602em" x="11.58301" y="10.7998"/><tspan x="18.87305" y="10.7998"/></text></g><g id="colour"><path d="M47,17.35665V59H39.78788V21.17a.48008.48008,0,0,0-.17513-.37325L30.34,12.72629a.51355.51355,0,0,0-.68,0L20.38732,20.7967a.47994.47994,0,0,0-.1752.37325V59H13V17.35665L30,1.69Z" fill="#c98831"/><polygon fill="#0288d0" points="39 20.747 39 59 21 59 21 20.747 30 13 39 20.747"/><polygon fill="#0579ad" points="35 17.304 35 59 39 59 39 20.747 35 17.304"/><polygon fill="#c98831" points="15 4.903 15 8 19 8 19 4.903 17 1 15 4.903"/><polygon fill="#aa650b" points="15 7.992 15 15 19 11.026 19 7.992 15 7.992"/><polygon fill="#c98831" points="45 4.903 45 8 41 8 41 4.903 43 1 45 4.903"/><polygon fill="#aa650b" points="45 7.992 45 15 41 11.026 41 7.992 45 7.992"/><path d="M43,19V59H39.78788V21.17a.48008.48008,0,0,0-.17513-.37325L30.34,12.72629a.51355.51355,0,0,0-.68,0L20.38732,20.7967a.47994.47994,0,0,0-.1752.37325V59H17V19L30,7Z" fill="#aa650b"/><path d="M24.999,34a1,1,0,0,1-.83105-1.55469l2-3A1,1,0,1,1,27.832,30.55469l-2,3A.99908.99908,0,0,1,24.999,34Z" fill="#059adb"/><path d="M25.999,39a1.0004,1.0004,0,0,1-.813-1.58105l5-7A1.00008,1.00008,0,0,1,31.814,31.58105l-5,7A.99917.99917,0,0,1,25.999,39Z" fill="#059adb"/></g><g data-name="Layer 1" id="Layer_1"><path d="M47.68555,16.27184,46,14.68541V5.00036a1.00067,1.00067,0,0,0-.10547-.44727l-2-4a1.04127,1.04127,0,0,0-1.78906,0l-2,4A1.00067,1.00067,0,0,0,40,5.00036v4.038L30.68555.27184a1.00262,1.00262,0,0,0-1.37109,0L20,9.03838v-4.038a1.00067,1.00067,0,0,0-.10547-.44727l-2-4a1.04127,1.04127,0,0,0-1.78906,0l-2,4A1.00067,1.00067,0,0,0,14,5.00036v9.68506l-1.68555,1.58643A1.00229,1.00229,0,0,0,12,17.00036v42a.99974.99974,0,0,0,1,1H47a.99974.99974,0,0,0,1-1v-42A1.00229,1.00229,0,0,0,47.68555,16.27184ZM43,3.23668l1,2V7.00036H42V5.23668ZM42,9.00036h2v3.80273l-2-1.88232ZM17,3.23668l1,2V7.00036H16V5.23668ZM16,9.00036h2v1.92041l-2,1.88232Zm26,49H40v-37a.99976.99976,0,0,0-.33545-.74707l-9-8a.99805.99805,0,0,0-1.3291,0l-9,8A.99976.99976,0,0,0,20,21.00036v37H18V19.43786L30,8.36168,42,19.43786Zm-4-33H35.11994L38,22.94317Zm-5-.94281V17.005l4.399,3.9104Zm-2,.94281H29V15.22716l1-.88892,1,.88892Zm-9-2.05719,2.88007,2.05719H22Zm5,1.11438-4.399-3.14215L27,17.005Zm-5,2.94281H38v31H22Zm24,31H44v-39a.99745.99745,0,0,0-.32178-.73437l-13-12a1,1,0,0,0-1.35645,0l-13,12A.99745.99745,0,0,0,16,19.00036v39H14V17.432L30,2.3734,46,17.432Z"/></g></svg>