<?xml version="1.0" ?><svg viewBox="0 0 60 60" xmlns="http://www.w3.org/2000/svg"><title/><g id="colour"><path d="M53,34,30,57c21,9,29-14,29-29A6.45235,6.45235,0,0,1,53,34Z" fill="#ff9f00"/><path d="M7,34,30,57C9,66,1,43,1,28A6.45235,6.45235,0,0,0,7,34Z" fill="#ff9f00"/><path d="M32.93866,54.06134,30,57c21,9,29-14,29-29a5.10127,5.10127,0,0,1-.37885,1.86871C56.91626,43.41962,49.29553,59.03406,32.93866,54.06134Z" fill="#e28703"/><path d="M1.37885,29.86877A5.10158,5.10158,0,0,1,1,28C1,43,9,66,30,57l-2.9386-2.9386C10.70453,59.03412,3.08374,43.41968,1.37885,29.86877Z" fill="#e28703"/><path d="M42.27778,44.91852l-5.20259,5.06076-1.26608-2.93916a.50447.50447,0,0,0-.38307-.31047.53009.53009,0,0,0-.47872.14484L32.213,49.52391l-1.76617-2.577a.5812.5812,0,0,0-.89367,0l-1.76617,2.577-2.73432-2.64942a.512.512,0,0,0-.47872-.14484.52619.52619,0,0,0-.38307.31047L22.94611,50l-5.22389-5.08148C15.30707,34.176,19.03084,24.16814,27.67,18l1.85124,3.59117a.54039.54039,0,0,0,.95757,0L32.33,18C40.96916,24.16814,44.69293,34.176,42.27778,44.91852Z" fill="#0288d0"/><path d="M31.30553,18,30,20.31067a23.84532,23.84532,0,0,1,7.82436,24.60785l-2.6126,2.31879,1.29456,2.74194,5.7021-5.06073C44.85548,34.176,40.77419,24.16815,31.30553,18Z" fill="#0579ad"/><path d="M36,50.01661,29.95031,57l-6.02909-6.95962,1.07-3.0285,2.54131,2.92157a.4827.4827,0,0,0,.41151.17818.55946.55946,0,0,0,.38067-.26132l1.62561-2.82661,1.62561,2.82661a.55946.55946,0,0,0,.38067.26132.51729.51729,0,0,0,.41151-.17818L34.91971,47Z" fill="#e28703"/><polygon fill="#ff9f00" points="30 14 27 16 30 22 33 16 30 14"/><path d="M21.9043,36a.98353.98353,0,0,1-.21191-.02246,1.0004,1.0004,0,0,1-.7666-1.18848c.15137-.69824.332-1.39746.53906-2.0791a1.0003,1.0003,0,1,1,1.91406.582c-.19142.62891-.3584,1.27441-.498,1.91895A1.00052,1.00052,0,0,1,21.9043,36Z" fill="#059adb"/><path d="M24.03613,30.00244a.98941.98941,0,0,1-.45508-.11035.99955.99955,0,0,1-.43359-1.34619,24.85659,24.85659,0,0,1,3.08789-4.64453,1.00017,1.00017,0,0,1,1.53125,1.28711A22.86726,22.86726,0,0,0,24.92676,29.459.99932.99932,0,0,1,24.03613,30.00244Z" fill="#059adb"/></g><g data-name="Layer 1" id="Layer_1"><path d="M59,27.00036a.99974.99974,0,0,0-1,1,5.49473,5.49473,0,0,1-5,5,.99928.99928,0,0,0-.707.293l-8.8009,8.8009a25.82943,25.82943,0,0,0-10.226-24.38983l.62842-1.25677a.99969.99969,0,0,0-.33984-1.2793l-3-2a1.00107,1.00107,0,0,0-1.10937,0l-3,2a.99969.99969,0,0,0-.33984,1.2793l.62842,1.25677a25.82943,25.82943,0,0,0-10.226,24.38983L7.707,33.29332a.99928.99928,0,0,0-.707-.293,5.49473,5.49473,0,0,1-5-5,1,1,0,0,0-2,0C0,38.62926,3.75586,51.83043,12.14649,57.36364a15.9432,15.9432,0,0,0,8.95117,2.67383,23.40214,23.40214,0,0,0,8.90228-1.95886,23.38974,23.38974,0,0,0,8.9024,1.95886,15.9432,15.9432,0,0,0,8.95117-2.67383C56.24414,51.83043,60,38.62926,60,28.00036A.99974.99974,0,0,0,59,27.00036ZM30,15.202l1.71094,1.14063L30,19.76452l-1.71094-3.42187Zm-2.35706,4.32056,1.46252,2.925a1.00021,1.00021,0,0,0,1.78906,0l1.46252-2.925c7.58252,5.8335,10.82788,15.06653,8.71747,24.9892l-4.25317,4.25317-.8985-2.15033a.99974.99974,0,0,0-1.62988-.32129l-2.1377,2.1377L30.832,46.44567a1.03785,1.03785,0,0,0-1.66406,0L27.84473,48.431l-2.1377-2.1377a.99944.99944,0,0,0-1.63281.3291l-.87994,2.15814-4.2688-4.2688C16.81506,34.5891,20.06043,25.35607,27.64295,19.52257ZM30,55.58629l-5.27161-5.27161.629-1.54285L27.293,50.70739A.99983.99983,0,0,0,28.832,50.555L30,48.80309l1.168,1.752a1.00007,1.00007,0,0,0,.7334.44043c.0332.00293.06641.00488.09863.00488a1.00027,1.00027,0,0,0,.707-.293l1.94531-1.94531.64,1.53192Zm-16.752.10742C6.76758,51.42125,3.24707,41.70934,2.27832,32.92614a7.13352,7.13352,0,0,0,4.29,2.05762L28.21973,56.63512C22.459,58.764,17.42676,58.44957,13.248,55.69371Zm33.50391,0c-4.17871,2.75684-9.21,3.07129-14.97168.94141L53.43164,34.98375a7.13352,7.13352,0,0,0,4.29-2.05762C56.75293,41.70934,53.23242,51.42125,46.752,55.69371Z"/></g></svg>